<svg aria-hidden="true" style="position: absolute; width: 0; height: 0; overflow: hidden;" version="1.1" xmlns="http://www.w3.org/2000/svg" xmlns:xlink="http://www.w3.org/1999/xlink">
<defs>
<symbol id="icon-tablet" viewBox="0 0 25 32">
<path fill="#e60000" style="fill: var(--color1, #e60000)" d="M0.914 15.643c0-4.126 0-8.261 0-12.387 0-1.918 1.109-3.027 3.017-3.027 5.832 0 11.664 0 17.496 0 1.909 0 3.017 1.109 3.017 3.027 0 8.281 0 16.552 0 24.832 0 1.88-1.118 2.998-2.988 2.998-5.851 0-11.693 0-17.544 0-1.87 0-2.988-1.128-2.988-2.998-0.010-4.145-0.010-8.3-0.010-12.445zM10.005 27.432c1.793 0 3.567 0 5.34 0 0-0.598 0-1.147 0-1.716-1.803 0-3.567 0-5.34 0 0 0.588 0 1.147 0 1.716z"></path>
</symbol>
<symbol id="icon-smartphones" viewBox="0 0 32 32">
<path fill="#e60000" style="fill: var(--color1, #e60000)" d="M8.32 15.68c0-3.715-0.009-7.438 0-11.153 0-1.529 0.774-2.644 2.132-3.085 0.324-0.108 0.675-0.153 1.016-0.153 3.139-0.009 6.278-0.009 9.408 0 1.826 0.009 3.157 1.331 3.157 3.148 0.009 7.501 0.009 14.994 0 22.495 0 1.817-1.331 3.148-3.148 3.148-3.103 0.009-6.206 0.009-9.309 0-1.943 0-3.238-1.277-3.247-3.238-0.018-3.724-0.009-7.438-0.009-11.162zM16.181 3.897c-0.612 0-1.223 0-1.844 0-0.486 0.009-0.756 0.234-0.764 0.63-0.009 0.405 0.243 0.684 0.71 0.684 1.259 0.018 2.509 0.018 3.769 0 0.45-0.009 0.756-0.315 0.738-0.684-0.018-0.378-0.315-0.63-0.774-0.63-0.612 0-1.223 0-1.835 0zM16.181 24.863c-0.738 0-1.322 0.585-1.313 1.304s0.612 1.304 1.331 1.295c0.702-0.009 1.268-0.585 1.268-1.295 0.009-0.747-0.549-1.304-1.286-1.304z"></path>
</symbol>
<symbol id="icon-tv" viewBox="0 0 43 32">
<path fill="#e60000" style="fill: var(--color1, #e60000)" d="M0.16 20.015v0.576c13.889 0 27.685 0 41.533-0.013v-18.595c0-1.259-0.562-1.822-1.848-1.822h-37.837c-1.299 0-1.848 0.563-1.848 1.835v18.019zM19.669 13.957c-0.56 0.324-1.124 0.65-1.695 0.981v-7.878c1.45 0.844 2.877 1.667 4.322 2.499 0.824 0.475 1.654 0.953 2.496 1.44-1.736 0.999-3.411 1.968-5.122 2.958zM35.213 27.783c-0.132-0.325-0.268-0.657-0.403-1.002h0.001c1.808 0 3.508 0 5.182-0.013 0.911-0.013 1.607-0.523 1.648-1.34 0.046-0.778 0.035-1.562 0.024-2.353-0.005-0.353-0.010-0.708-0.010-1.064h-41.507v2.84c0 1.353 0.563 1.916 1.902 1.916h4.969c-0.415 1.045-0.804 2.010-1.192 2.974-0.161 0.429-0.228 0.857 0.308 1.058 0.522 0.201 0.777-0.147 0.951-0.576 0.118-0.29 0.238-0.58 0.358-0.869 0.29-0.698 0.579-1.395 0.834-2.106 0.147-0.388 0.348-0.482 0.737-0.482 7.942 0.013 15.885 0.013 23.827 0 0.415 0 0.589 0.134 0.723 0.509 0.304 0.807 0.628 1.593 0.955 2.385 0.048 0.116 0.096 0.232 0.143 0.348 0.033 0.074 0.064 0.144 0.094 0.214s0.060 0.141 0.094 0.214c0.174 0.388 0.536 0.576 0.857 0.348 0.214-0.147 0.402-0.616 0.321-0.857-0.232-0.715-0.516-1.411-0.815-2.146zM25.983 24.65h-5.090c-0.562 0-1.125-0.001-1.69-0.003-1.129-0.003-2.261-0.006-3.386 0.003-0.455 0-0.897-0.054-0.911-0.63-0.013-0.59 0.429-0.71 0.924-0.71h10.166c0.482 0 0.937 0.107 0.937 0.697 0 0.616-0.482 0.643-0.951 0.643z"></path>
</symbol>
<symbol id="icon-union" viewBox="0 0 42 32">
<path fill="#e60000" style="fill: var(--color1, #e60000)" d="M19.974 7.113c0.35-0.001 0.699-0.003 1.047-0.003 0.36 0 0.722 0.001 1.084 0.003 0.728 0.003 1.459 0.006 2.191-0.003 1.134-0.025 1.776-0.667 1.789-1.813 0.012-1.007 0.012-2.014 0-3.021 0-1.196-0.668-1.876-1.864-1.876h-6.361c-1.184 0.013-1.839 0.68-1.852 1.888v2.959c0 1.209 0.642 1.851 1.864 1.863 0.697 0.008 1.4 0.006 2.102 0.003zM34.134 10.484h-26.137c-2.393 0-3.716 1.322-3.741 3.739-0.013 1.058-0.252 1.297-1.297 1.297-0.051 0-0.1-0.001-0.149-0.003-0.097-0.003-0.191-0.006-0.292 0.003-0.932 0.063-1.612 0.718-1.625 1.662-0.013 2.241-0.013 4.495 0.013 6.735 0 0.969 0.693 1.624 1.675 1.675h0.63c0.731 0.025 1.020 0.302 1.058 1.032v0.566c0.038 2.040 1.436 3.424 3.477 3.437 1.637 0.013 3.275 0.013 4.912 0 1.474 0 2.809-0.441 3.993-1.309 0.422-0.315 0.841-0.629 1.26-0.944s0.838-0.629 1.26-0.944c1.323-0.982 2.481-0.982 3.804 0.013 0.377 0.277 0.751 0.559 1.126 0.841 0.478 0.36 0.957 0.72 1.444 1.073 0.869 0.642 1.839 1.12 2.935 1.171 1.642 0.077 3.294 0.087 4.948 0.096 0.236 0.001 0.472 0.003 0.708 0.004 2.318 0.013 3.691-1.347 3.703-3.651 0.012-1.184 0.214-1.385 1.398-1.385 1.323 0 1.978-0.642 1.978-1.952v-6.169c0-1.309-0.655-1.951-1.978-1.951-1.184-0.013-1.386-0.201-1.398-1.385-0.025-2.304-1.386-3.651-3.703-3.651z"></path>
</symbol>
<symbol id="icon-geim" viewBox="0 0 43 32">
<path fill="#e60000" style="fill: var(--color1, #e60000)" d="M20.206 6.12h2.712c0-0.426 0.003-0.842 0.006-1.252 0.006-0.804 0.012-1.587-0.006-2.376-0.027-0.712-0.603-1.232-1.287-1.273-0.685-0.027-1.37 0.452-1.411 1.136-0.038 0.87-0.030 1.741-0.021 2.62 0.004 0.379 0.007 0.761 0.007 1.144zM1.785 19.486c-0.426 1.419-0.851 2.834-0.795 4.348 0 0.091-0.002 0.183-0.003 0.274-0.003 0.183-0.006 0.365 0.003 0.547 0.301 4.764 4.835 7.844 9.368 6.338 2.013-0.671 3.451-2.026 4.287-3.97 0.767-1.766 2-3.066 3.807-3.71 1.835-0.657 3.739-0.643 5.602-0.192 2.041 0.506 3.356 1.889 4.205 3.792 1.411 3.19 4.944 5.010 8.19 4.258 3.903-0.904 6.478-4.997 5.451-8.871-0.89-3.395-1.849-6.763-2.917-10.103-1.671-5.229-8.396-7.324-12.491-3.573-0.164 0.151-0.452 0.246-0.671 0.246-2.876 0.014-5.752 0.014-8.629 0-0.247 0-0.548-0.096-0.726-0.26-4.205-3.806-11.080-1.574-12.641 3.86-0.147 0.503-0.295 1.006-0.443 1.509-0.444 1.509-0.889 3.018-1.31 4.528-0.092 0.327-0.19 0.652-0.287 0.977zM29.447 17.010c0.153-0.148 0.32-0.31 0.51-0.5-0.146-0.13-0.285-0.246-0.418-0.357-0.203-0.17-0.389-0.326-0.555-0.492-0.698-0.698-0.74-1.52-0.151-2.108s1.411-0.52 2.109 0.178c0.227 0.227 0.446 0.463 0.711 0.749 0.070 0.075 0.143 0.154 0.22 0.237 0.11-0.122 0.213-0.24 0.313-0.354 0.238-0.272 0.459-0.523 0.7-0.755 0.616-0.589 1.411-0.602 1.959-0.068 0.575 0.561 0.562 1.383-0.041 2.012-0.23 0.24-0.482 0.458-0.782 0.718-0.111 0.096-0.229 0.198-0.355 0.309 0.171 0.16 0.334 0.303 0.489 0.438 0.228 0.2 0.439 0.384 0.635 0.588 0.616 0.643 0.616 1.465 0.055 2.012-0.575 0.561-1.37 0.534-2-0.096-0.204-0.213-0.391-0.444-0.599-0.699-0.112-0.138-0.23-0.284-0.36-0.438-0.161 0.171-0.302 0.326-0.432 0.468-0.224 0.245-0.415 0.455-0.623 0.654-0.657 0.63-1.438 0.671-2.013 0.11-0.589-0.575-0.562-1.396 0.082-2.067 0.171-0.178 0.345-0.347 0.544-0.54zM10.092 15.22c0.159 0.002 0.324 0.003 0.499 0.003 0-0.14-0.001-0.271-0.002-0.395-0.002-0.348-0.005-0.643 0.016-0.946 0.027-0.821 0.603-1.41 1.37-1.396 0.753 0 1.329 0.589 1.356 1.424 0.009 0.268 0.006 0.537 0.003 0.828-0.002 0.155-0.003 0.316-0.003 0.486 0.158 0 0.312-0.002 0.463-0.003 0.292-0.003 0.572-0.006 0.852 0.003 0.822 0.027 1.411 0.602 1.411 1.355 0 0.767-0.589 1.342-1.411 1.369-0.266 0.009-0.527 0.006-0.819 0.003-0.159-0.002-0.326-0.003-0.509-0.003 0 0.155 0.002 0.303 0.003 0.448 0.003 0.276 0.006 0.537-0.003 0.798-0.014 0.89-0.548 1.478-1.342 1.492-0.808 0.014-1.37-0.589-1.383-1.52v-1.218c-0.175 0-0.341 0.002-0.5 0.003-0.3 0.003-0.578 0.006-0.856-0.003-0.794-0.041-1.37-0.602-1.383-1.328-0.027-0.753 0.548-1.355 1.37-1.396 0.287-0.009 0.568-0.006 0.87-0.003z"></path>
</symbol>
<symbol id="icon-laptops" viewBox="0 0 43 32">
<path fill="#e60000" style="fill: var(--color1, #e60000)" d="M36.346 0.99h-29.714c-1.507 0-1.926 0.418-1.926 1.879v15.732c0 1.448 0.433 1.879 1.856 1.879h29.784c1.424 0 1.856-0.432 1.856-1.879v-15.732c0-1.448-0.433-1.879-1.856-1.879zM2.334 31.619h38.256c0.335 0 0.698-0.014 1.019-0.125 0.74-0.251 0.963-0.863 0.586-1.545-1.326-2.422-2.666-4.831-4.005-7.239l-0-0c-0.321-0.557-0.782-0.835-1.424-0.835h-30.635c-0.642 0-1.103 0.279-1.41 0.835l-0 0c-1.34 2.408-2.68 4.817-4.005 7.239-0.377 0.682-0.14 1.295 0.6 1.545 0.307 0.111 0.67 0.125 1.019 0.125zM22.32 28.838c-0.293-0.002-0.586-0.003-0.879-0.003s-0.585 0.002-0.878 0.003c-0.588 0.003-1.178 0.006-1.774-0.003-0.893-0.014-1.507-0.571-1.521-1.364-0.014-0.822 0.614-1.406 1.549-1.406 1.758-0.014 3.531-0.014 5.29 0 0.893 0.014 1.507 0.571 1.521 1.364 0.014 0.808-0.614 1.392-1.549 1.406-0.586 0.009-1.172 0.006-1.759 0.003z"></path>
</symbol>
</defs>
</svg>
