<svg aria-hidden="true" style="position: absolute; width: 0; height: 0; overflow: hidden;" version="1.1" xmlns="http://www.w3.org/2000/svg" xmlns:xlink="http://www.w3.org/1999/xlink">
	<defs>
		<symbol id="icon-path" viewBox="0 0 44 32">
			<path d="M5.202 10.332c0.666-2.172 2.201-3.968 4.237-4.961 1.849-0.794 3.99-0.421 5.464 0.952 0.82 0.668 1.094 1.803 0.67 2.774-0.304 0.301-0.723 0.455-1.149 0.423s-0.817-0.248-1.073-0.591c-0.641-1.017-0.65-2.311-0.024-3.337 0.465-1.024 1.114-1.953 1.915-2.74 1.498-1.618 3.715-2.357 5.879-1.96 1.999 0.411 3.546 2.003 3.905 4.019 0.174 1.076-0.285 2.156-1.18 2.774-0.76 0.433-1.726 0.168-2.162-0.592-0.158-0.593-0.088-1.224 0.197-1.768 0.189-0.468 0.434-0.911 0.728-1.32 0.615-0.842 1.397-1.546 2.299-2.068 1.79-1.086 3.909-1.493 5.972-1.147 1.93 0.267 3.617 1.443 4.539 3.165 0.656 2-0.261 4.179-2.147 5.101-0.453 0.285-0.945 0.502-1.46 0.644-0.424 0.177-0.911 0.107-1.268-0.182-0.211-0.55-0.071-1.174 0.355-1.58 0.298-0.409 0.641-0.783 1.024-1.115 1.573-1.375 3.656-2.012 5.726-1.75 2.031 0.311 3.78 1.605 4.677 3.46 0.944 1.772 0.918 3.905-0.067 5.654-1.026 1.641-2.771 2.692-4.696 2.83-0.456 0.031-0.915-0-1.363-0.092-0.506-0.050-0.984-0.261-1.363-0.601-0.19-0.336-0.185-0.749 0.014-1.081 0.198-0.419 0.517-0.769 0.916-1.004 1.656-0.825 3.642-0.589 5.061 0.6 1.556 1.196 2.314 3.165 1.965 5.1-0.414 2.15-1.699 4.032-3.548 5.195-1.742 1.122-3.863 1.487-5.878 1.012-0.973-0.235-1.861-0.738-2.565-1.451-0.63-0.612-0.932-1.488-0.815-2.361 0.126-0.411 0.456-0.728 0.871-0.836s0.856 0.007 1.166 0.304c0.78 0.797 1.116 1.931 0.895 3.026-0.235 2.073-1.357 3.94-3.074 5.116-1.605 1.194-3.693 1.52-5.584 0.872-1.715-0.706-3.057-2.1-3.701-3.844-0.328-0.836-0.472-1.734-0.421-2.631 0.032-0.461 0.126-0.915 0.28-1.351 0.071-0.477 0.375-0.887 0.811-1.090 0.456-0.008 0.86 0.295 0.982 0.736 0.136 0.599 0.097 1.224-0.111 1.802-0.285 1.041-0.75 2.024-1.375 2.903-1.174 1.731-3.003 2.904-5.061 3.247-1.973 0.253-3.956-0.392-5.407-1.757-1.359-1.299-1.878-3.252-1.344-5.058 0.239-0.872 0.696-1.669 1.327-2.315 0.303-0.306 0.65-0.566 1.029-0.771 0.185-0.1 0.379-0.184 0.578-0.251 0.214-0.118 0.463-0.155 0.703-0.105 0.188 0.339 0.175 0.754-0.034 1.081-0.211 0.49-0.475 0.954-0.789 1.384-0.635 0.872-1.456 1.591-2.403 2.105-0.929 0.514-1.975 0.78-3.036 0.773-1.019-0.027-2.012-0.338-2.866-0.897-1.767-1.051-2.753-3.047-2.516-5.095 0.402-1.998 1.985-3.543 3.986-3.891 1.014-0.235 2.069 0.163 2.677 1.010 0.581 1.087-1.118 1.423-1.839 1.416-2.031 0.048-3.801-1.38-4.191-3.381s0.715-3.992 2.615-4.715c0.954-0.451 2.077-0.355 2.94 0.253 0.335 0.266 0.537 0.665 0.554 1.094s-0.153 0.842-0.465 1.134c-0.376 0.168-0.804 0.174-1.183 0.016s-0.678-0.467-0.824-0.853c-0.303-1.132 0.021-2.341 0.85-3.168 0.276-0.32-0.188-0.789-0.465-0.467-1.062 0.956-1.51 2.424-1.163 3.813 0.409 1.105 1.56 1.745 2.71 1.507 0.506-0.199 0.911-0.593 1.124-1.095s0.216-1.068 0.009-1.572c-0.52-1.167-1.737-1.857-3.002-1.703-2.438 0.247-4.357 2.197-4.573 4.646-0.132 2.461 1.54 4.653 3.941 5.168 1.153 0.344 2.401 0.117 3.361-0.611 0.462-0.453 0.59-1.148 0.32-1.737-0.277-0.56-0.743-1.004-1.315-1.252-1.736-0.514-3.614-0.126-5.007 1.034s-2.12 2.939-1.937 4.747c0.166 1.199 0.69 2.319 1.503 3.212 1.677 1.903 4.3 2.661 6.729 1.946 1.184-0.362 2.265-1.001 3.155-1.864 0.466-0.449 0.878-0.952 1.225-1.499 0.341-0.495 0.598-1.044 0.759-1.623 0.18-0.527 0.056-1.11-0.323-1.517-0.574-0.313-1.272-0.29-1.823 0.061-0.981 0.428-1.812 1.141-2.386 2.046-1.256 1.889-1.362 4.321-0.276 6.312 1.266 2.015 3.446 3.269 5.819 3.345 2.455 0.059 4.802-1.015 6.368-2.914 0.823-0.958 1.462-2.059 1.886-3.25 0.67-1.192 0.589-2.666-0.207-3.778-0.457-0.464-1.148-0.608-1.751-0.363-0.547 0.338-0.941 0.877-1.1 1.501-0.369 1.045-0.457 2.169-0.254 3.258 0.398 2.191 1.729 4.098 3.645 5.221 2.071 1.142 4.589 1.1 6.622-0.109 2.143-1.205 3.627-3.32 4.032-5.752 0.272-1.29 0.005-2.635-0.738-3.722-0.365-0.498-0.919-0.824-1.531-0.9s-1.228 0.103-1.704 0.497c-0.708 0.877-0.804 2.101-0.243 3.079 0.537 1.023 1.409 1.829 2.469 2.282 2.271 0.974 4.858 0.872 7.046-0.277 2.271-1.156 3.919-3.258 4.504-5.744 0.271-1.17 0.209-2.393-0.179-3.529-0.388-1.033-1.053-1.939-1.922-2.616-1.648-1.455-4.005-1.777-5.98-0.816-1.057 0.52-1.629 1.692-1.391 2.848 0.269 0.565 0.782 0.974 1.392 1.108 0.547 0.182 1.119 0.279 1.695 0.288 2.283 0.005 4.417-1.137 5.686-3.042 1.218-2.006 1.271-4.512 0.138-6.568-1.077-2.136-3.161-3.577-5.534-3.827-2.426-0.204-4.813 0.708-6.49 2.479-0.741 0.793-1.847 2.365-0.693 3.303 1.133 0.515 2.46 0.325 3.405-0.485 1.079-0.625 1.931-1.579 2.431-2.724 0.423-1.043 0.414-2.212-0.026-3.248-1.060-2.026-3.061-3.384-5.33-3.616-2.406-0.317-4.842 0.298-6.813 1.718-0.988 0.698-1.799 1.619-2.369 2.688-0.791 1.042-0.785 2.487 0.016 3.521 0.869 0.722 2.123 0.737 3.009 0.036 0.925-0.838 1.351-2.098 1.124-3.327-0.47-2.345-2.347-4.147-4.702-4.514-2.507-0.304-4.996 0.697-6.6 2.654-0.924 0.994-1.604 2.191-1.986 3.496-0.44 1.224-0.050 2.594 0.968 3.4 0.417 0.329 0.947 0.478 1.473 0.414s1.005-0.337 1.331-0.757c0.532-1.115 0.299-2.445-0.579-3.312-1.607-1.705-4.098-2.231-6.254-1.322-2.24 1.046-3.904 3.031-4.546 5.425-0.031 0.129 0.045 0.26 0.173 0.295s0.26-0.038 0.299-0.165h-0z"></path>
		</symbol>
		<symbol id="icon-shape-2" viewBox="0 0 62 32">
			<path d="M2.456 24.599c1.202-2.229 3.128-3.986 5.463-4.985 0.532-0.183 1.075-0.324 1.624-0.422-0.047-0.377-0.076-0.756-0.086-1.135-2.091 0.469-4.035 1.469-5.635 2.917-1.996 1.881-3.281 4.387-3.642 7.099-0.239 1.298-0.239 2.629 0 3.927h1.062c-0.394-2.533 0.031-5.125 1.214-7.401zM10.732 19.044c-0.398 0.027-0.795 0.076-1.189 0.147 0.094 0.755 0.261 1.504 0.5 2.235 0.58 2.445 2.107 4.563 4.249 5.891 1.346 0.628 2.903 0.628 4.249 0 1-0.393 1.814-1.148 2.276-2.115 0.387-2.024-0.442-4.087-2.125-5.287-2.115-1.74-4.872-2.509-7.588-2.115-0.065 0.006-0.129 0.012-0.194 0.018 0.054-0.26 0.119-0.518 0.194-0.774 0.289-2.303 1.178-4.49 2.58-6.344 3.669-3.846 8.535-6.347 13.81-7.099 3.066-0.545 6.193-0.372 9.141 0.474-0.727 0.756-1.353 1.611-1.857 2.547-1.12 2.341-1.12 5.060 0 7.401 0.941 2.272 3.019 3.881 5.463 4.229 2.337 0.268 4.642-0.707 6.070-2.568 1.603-2.32 1.603-5.384 0-7.704-1.874-2.231-4.272-3.898-6.93-4.892 1.879-1.066 3.995-1.671 6.171-1.754 4.921-0.545 9.852 0.928 13.658 4.078 0.673 0.428 1.297 0.927 1.862 1.486l-4.442 0.78h5.615c-0.146-0.231-0.298-0.458-0.455-0.681v-0.226l-0.144 0.025c-2.779-3.813-7.095-6.26-11.844-6.671-3.089-0.365-6.22 0.051-9.105 1.208-0.885 0.356-1.717 0.816-2.479 1.366-1.974-0.578-4.064-0.796-6.171-0.611-6.2-0.212-12.275 1.768-17.148 5.589-2.104 1.699-3.768 3.874-4.856 6.344-0.429 1.309-0.624 2.672-0.586 4.032 0.478-0.107 0.964-0.186 1.455-0.237-0.085 0.405-0.145 0.814-0.18 1.224zM61.647 6.8l-0.574 0.101c0.251 0.248 0.491 0.509 0.718 0.78v-0.681c-0.047-0.067-0.095-0.134-0.144-0.201zM37.541 4.36c-0.299-0.101-0.601-0.196-0.904-0.283 0.485-0.504 1.014-0.964 1.582-1.373 0.393 0.115 0.781 0.244 1.164 0.388-0.435 0.247-0.857 0.518-1.265 0.814-0.199 0.144-0.391 0.296-0.577 0.455zM37.541 4.36c1.357 0.459 2.671 1.065 3.915 1.811 2.112 1.345 3.505 3.563 3.794 6.042 0.149 2.153-1.248 4.112-3.339 4.683-1.932 0.624-4.053 0.096-5.463-1.359-1.531-1.558-2.259-3.73-1.973-5.891 0.39-2.064 1.476-3.926 3.065-5.285zM10.732 19.044c1.454-0.1 2.923 0.090 4.319 0.57 1.917 0.233 3.58 1.432 4.401 3.172 0.176 0.923-0.032 1.878-0.575 2.646s-1.376 1.285-2.308 1.432c-1.265-0.065-2.458-0.605-3.339-1.511-0.872-0.708-1.594-1.58-2.125-2.568-0.356-1.219-0.481-2.488-0.374-3.742zM61.869 4.235c-0.035-0.496-0.035-0.994 0-1.49v1.49zM61.869 4.235v0.149c-0.025 0.447-0.025 0.895 0 1.341 0.039 0.446 0.039 0.895 0 1.341-0.202-0.933-0.202-1.899 0-2.832z"></path>
		</symbol>
		<symbol id="icon-shape-1" viewBox="0 0 86 32">
			<path d="M14.93 11.869c-4.781-3.224-9.272-6.855-13.425-10.852l0-0c-0.436-0.408-1.245 0.178-0.861 0.682 4.147 5.264 9.194 9.747 14.913 13.245 10.057 6.322 21.433 10.281 33.282 11.582 5.95 0.676 11.965 0.667 17.927-0.027 3.199-0.403 6.369-0.999 9.495-1.785l0.053-0.037c1.297-0.901 2.595-1.797 3.898-2.687 0.813 0.564 1.846-0.264 1.53-1.039 0.5-0.338 1.001-0.675 1.504-1.011l0.982 2.322c-2.615 0.956-5.274 1.774-7.967 2.452l-3.2 2.229c0.22-0.062 0.461-0.006 0.629 0.157 0.206 0.199 0.257 0.511 0.124 0.769-0.501 0.86-1.071 1.642-1.648 2.435-0.194 0.267-0.39 0.535-0.583 0.807l-2.116-1.548c-0.383 0.426-0.464 1.063-0.164 1.575 0.362 0.617 1.15 0.832 1.784 0.487 1.213-0.701 2.372-1.492 3.466-2.368l3.291-2.321c2.245-1.579 4.475-3.181 6.69-4.805 0.54-0.338 0.761-1.015 0.522-1.599-0.244-0.587-0.888-0.897-1.504-0.722-0.687 0.271-1.379 0.531-2.074 0.779-1.356-1.267-2.841-2.387-4.432-3.342-0.833-0.487-1.698-0.916-2.589-1.285-0.712-0.407-1.526-0.599-2.345-0.552-0.243 0.069-0.44 0.247-0.534 0.481s-0.074 0.499 0.054 0.717c0.546 0.572 1.218 1.008 1.963 1.275 0.702 0.358 1.389 0.748 2.076 1.138 0.057 0.032 0.114 0.065 0.172 0.097 1.193 0.673 2.349 1.409 3.462 2.205-4.826 1.54-9.811 2.53-14.858 2.948-11.608 1.018-23.269-0.552-34.142-4.598-5.407-2.015-10.564-4.632-15.376-7.802zM71.635 27.88c0.404-0.279 0.815-0.546 1.233-0.803l0.193-0.134c-0.049 0.014-0.097 0.034-0.144 0.060-0.445 0.277-0.868 0.573-1.282 0.878zM71.635 27.88c-0.754 0.52-1.482 1.079-2.18 1.672l0.012 0.009c0.078-0.087 0.169-0.166 0.272-0.233 0.259-0.196 0.513-0.393 0.767-0.589 0.375-0.29 0.748-0.579 1.129-0.859z"></path>
		</symbol>
	</defs>
</svg>