<svg aria-hidden="true" style="position: absolute; width: 0; height: 0; overflow: hidden;" version="1.1" xmlns="http://www.w3.org/2000/svg" xmlns:xlink="http://www.w3.org/1999/xlink">
<defs>
<symbol id="icon-pen" viewBox="0 0 32 32">
<path d="M31.238 8.746c0.001-0.201-0.037-0.399-0.113-0.585s-0.188-0.355-0.329-0.497l-6.461-6.461c-0.142-0.141-0.311-0.253-0.497-0.329s-0.384-0.114-0.585-0.113c-0.2-0.001-0.399 0.037-0.585 0.113s-0.355 0.188-0.497 0.329l-20.968 20.968c-0.141 0.142-0.253 0.311-0.329 0.497s-0.114 0.385-0.113 0.585v6.461c0 0.404 0.161 0.792 0.446 1.078s0.673 0.446 1.077 0.446h6.461c0.213 0.012 0.427-0.022 0.626-0.098s0.381-0.193 0.532-0.344l16.564-16.655 4.328-4.236c0.139-0.148 0.252-0.318 0.335-0.503 0.015-0.121 0.015-0.244 0-0.366 0.007-0.071 0.007-0.142 0-0.213l0.107-0.076zM8.122 28.19h-4.312v-4.312l15.131-15.131 4.312 4.312-15.131 15.131zM25.402 10.91l-4.312-4.312 2.164-2.149 4.297 4.297-2.149 2.164z"></path>
</symbol>
<symbol id="icon-dovnload" viewBox="0 0 32 32">
<path fill="#a53dff" style="fill: var(--color1, #a53dff)" d="M30.4 19.2c-0.424 0-0.831 0.169-1.131 0.469s-0.469 0.707-0.469 1.131v6.4c0 0.424-0.169 0.831-0.469 1.131s-0.707 0.469-1.131 0.469h-22.4c-0.424 0-0.831-0.169-1.131-0.469s-0.469-0.707-0.469-1.131v-6.4c0-0.424-0.169-0.831-0.469-1.131s-0.707-0.469-1.131-0.469c-0.424 0-0.831 0.169-1.131 0.469s-0.469 0.707-0.469 1.131v6.4c0 1.273 0.506 2.494 1.406 3.394s2.121 1.406 3.394 1.406h22.4c1.273 0 2.494-0.506 3.394-1.406s1.406-2.121 1.406-3.394v-6.4c0-0.424-0.169-0.831-0.469-1.131s-0.707-0.469-1.131-0.469zM14.864 21.936c0.152 0.146 0.332 0.26 0.528 0.336 0.192 0.085 0.399 0.128 0.608 0.128s0.416-0.044 0.608-0.128c0.196-0.076 0.376-0.19 0.528-0.336l6.4-6.4c0.301-0.301 0.471-0.71 0.471-1.136s-0.169-0.835-0.471-1.136c-0.301-0.301-0.71-0.471-1.136-0.471s-0.835 0.169-1.136 0.471l-3.664 3.68v-15.344c0-0.424-0.169-0.831-0.469-1.131s-0.707-0.469-1.131-0.469c-0.424 0-0.831 0.169-1.131 0.469s-0.469 0.707-0.469 1.131v15.344l-3.664-3.68c-0.149-0.149-0.326-0.268-0.521-0.348s-0.404-0.122-0.615-0.122c-0.211 0-0.42 0.042-0.615 0.122s-0.372 0.199-0.521 0.348c-0.149 0.149-0.268 0.326-0.348 0.521s-0.122 0.404-0.122 0.615c0 0.211 0.042 0.42 0.122 0.615s0.199 0.372 0.348 0.521l6.4 6.4z"></path>
</symbol>
<symbol id="icon-behance" viewBox="0 0 48 32">
<path d="M19.369 13.412c0 0 4.542-0.333 4.542-5.59s-3.716-7.823-8.422-7.823h-15.488v29.377h15.488c0 0 9.455 0.295 9.455-8.671 0 0 0.412-7.294-5.574-7.294zM14.373 5.221h1.115c0 0 2.105 0 2.105 3.057s-1.238 3.499-2.642 3.499h-8.126v-6.556h7.549zM15.051 24.156h-8.226v-7.851h8.664c0 0 3.138-0.041 3.138 4.034 0 3.436-2.344 3.79-3.575 3.816zM37.552 7.474c-11.446 0-11.436 11.288-11.436 11.288s-0.785 11.23 11.436 11.23c0 0 10.184 0.574 10.184-7.812h-5.238c0 0 0.175 3.158-4.772 3.158 0 0-5.238 0.346-5.238-5.111h15.422c0-0 1.687-12.753-10.359-12.753zM32.431 16.305c0 0 0.639-4.528 5.238-4.528 4.597 0 4.539 4.528 4.539 4.528h-9.777zM43.428 5.348h-12.279v-3.618h12.279v3.618z"></path>
</symbol>
<symbol id="icon-insta" viewBox="0 0 32 32">
<path d="M10.668 16c0-2.945 2.387-5.334 5.332-5.334s5.334 2.388 5.334 5.334-2.388 5.334-5.334 5.334c-2.945 0-5.332-2.388-5.332-5.334zM7.784 16c0 4.538 3.678 8.216 8.216 8.216s8.216-3.678 8.216-8.216c0-4.538-3.678-8.216-8.216-8.216s-8.216 3.678-8.216 8.216zM22.621 7.458c0 1.060 0.86 1.92 1.921 1.92 1.060 0 1.921-0.861 1.921-1.921s-0.859-1.919-1.921-1.919c-1.061 0-1.921 0.859-1.921 1.919zM9.535 29.024c-1.56-0.071-2.408-0.331-2.971-0.551-0.747-0.291-1.28-0.637-1.84-1.197-0.56-0.56-0.907-1.092-1.197-1.839-0.22-0.564-0.479-1.411-0.551-2.971-0.078-1.687-0.093-2.193-0.093-6.466s0.017-4.778 0.093-6.466c0.071-1.56 0.332-2.406 0.551-2.971 0.291-0.747 0.637-1.28 1.197-1.84 0.56-0.56 1.092-0.907 1.84-1.197 0.564-0.22 1.411-0.479 2.971-0.551 1.687-0.078 2.193-0.093 6.465-0.093 4.273 0 4.778 0.017 6.466 0.093 1.56 0.071 2.406 0.332 2.971 0.551 0.747 0.289 1.279 0.637 1.84 1.197 0.56 0.56 0.906 1.093 1.197 1.84 0.22 0.564 0.479 1.411 0.551 2.971 0.078 1.688 0.093 2.193 0.093 6.466 0 4.271-0.015 4.778-0.093 6.466-0.071 1.56-0.332 2.408-0.551 2.971-0.291 0.747-0.637 1.279-1.197 1.839s-1.093 0.906-1.84 1.197c-0.564 0.22-1.411 0.479-2.971 0.551-1.687 0.078-2.193 0.093-6.466 0.093-4.271 0-4.778-0.015-6.465-0.093zM9.404 0.097c-1.703 0.078-2.867 0.348-3.884 0.743-1.052 0.408-1.944 0.956-2.834 1.846-0.889 0.889-1.437 1.781-1.846 2.834-0.395 1.017-0.666 2.18-0.743 3.884-0.079 1.706-0.097 2.251-0.097 6.596s0.018 4.89 0.097 6.596c0.078 1.703 0.348 2.866 0.743 3.884 0.408 1.052 0.955 1.945 1.846 2.834 0.889 0.889 1.781 1.436 2.834 1.846 1.018 0.395 2.18 0.666 3.884 0.743 1.707 0.078 2.251 0.097 6.596 0.097 4.346 0 4.89-0.018 6.596-0.097 1.703-0.078 2.866-0.348 3.884-0.743 1.052-0.41 1.944-0.956 2.834-1.846 0.889-0.889 1.436-1.782 1.846-2.834 0.395-1.017 0.667-2.18 0.743-3.884 0.078-1.707 0.096-2.251 0.096-6.596s-0.018-4.89-0.096-6.596c-0.078-1.703-0.348-2.867-0.743-3.884-0.41-1.052-0.956-1.944-1.846-2.834-0.889-0.889-1.782-1.437-2.833-1.846-1.018-0.395-2.181-0.667-3.884-0.743-1.706-0.078-2.251-0.097-6.596-0.097-4.346 0-4.89 0.018-6.598 0.097z"></path>
</symbol>
<symbol id="icon-bol" viewBox="0 0 32 32">
<path d="M0 16c0-2.901 0.715-5.579 2.144-8.032s3.371-4.395 5.824-5.824c2.453-1.429 5.131-2.144 8.032-2.144s5.579 0.715 8.032 2.144c2.453 1.429 4.395 3.371 5.824 5.824s2.144 5.131 2.144 8.032c0 2.901-0.715 5.579-2.144 8.032s-3.371 4.395-5.824 5.824c-2.453 1.429-5.131 2.144-8.032 2.144s-5.579-0.715-8.032-2.144c-2.453-1.429-4.395-3.371-5.824-5.824s-2.144-5.131-2.144-8.032zM2.656 16c0 3.328 1.12 6.261 3.36 8.8 1.024-2.005 2.645-3.915 4.864-5.728s4.384-2.955 6.496-3.424c-0.32-0.747-0.629-1.419-0.928-2.016-3.669 1.173-7.637 1.76-11.904 1.76-0.832 0-1.451-0.011-1.856-0.032 0 0.085-0.005 0.192-0.016 0.32s-0.016 0.235-0.016 0.32zM3.072 12.704c0.469 0.043 1.163 0.064 2.080 0.064 3.563 0 6.944-0.48 10.144-1.44-1.621-2.88-3.403-5.28-5.344-7.2-1.685 0.853-3.131 2.037-4.336 3.552s-2.053 3.189-2.544 5.024zM7.84 26.528c2.411 1.877 5.131 2.816 8.16 2.816 1.579 0 3.147-0.299 4.704-0.896-0.427-3.648-1.259-7.179-2.496-10.592-1.963 0.427-3.941 1.504-5.936 3.232s-3.472 3.541-4.432 5.44zM12.736 3.104c1.877 1.941 3.616 4.363 5.216 7.264 2.901-1.216 5.088-2.763 6.56-4.64-2.475-2.048-5.312-3.072-8.512-3.072-1.088 0-2.176 0.149-3.264 0.448zM19.104 12.64c0.32 0.683 0.683 1.547 1.088 2.592 1.579-0.149 3.296-0.224 5.152-0.224 1.323 0 2.635 0.032 3.936 0.096-0.171-2.901-1.216-5.483-3.136-7.744-1.387 2.069-3.733 3.829-7.040 5.28zM20.992 17.472c1.088 3.157 1.824 6.4 2.208 9.728 1.685-1.088 3.061-2.485 4.128-4.192s1.707-3.552 1.92-5.536c-1.557-0.107-2.976-0.16-4.256-0.16-1.173 0-2.507 0.053-4 0.16z"></path>
</symbol>
<symbol id="icon-fb" viewBox="0 0 16 32">
<path d="M15.179 0.4h-4.891c-2.902 0-6.13 1.245-6.13 5.534 0.014 1.495 0 2.926 0 4.537h-3.358v5.447h3.461v15.682h6.361v-15.786h4.198l0.38-5.359h-4.688c0 0 0.011-2.384 0-3.076 0-1.695 1.73-1.598 1.834-1.598 0.823 0 2.424 0.002 2.835 0v-5.381h-0.002z"></path>
</symbol>
<symbol id="icon-activ" viewBox="0 0 31 32">
<path d="M8.381 22.095c0.606 0 1.188-0.241 1.616-0.669s0.669-1.010 0.669-1.616c0.007-0.076 0.007-0.153 0-0.229l4.251-4.251h0.701l2.453 2.453c0 0 0 0.076 0 0.122 0 0.606 0.241 1.188 0.669 1.616s1.010 0.669 1.616 0.669c0.606 0 1.188-0.241 1.616-0.669s0.669-1.010 0.669-1.616v-0.122l5.547-5.592c0.452 0 0.894-0.134 1.27-0.385s0.669-0.608 0.842-1.026c0.173-0.418 0.218-0.877 0.13-1.321s-0.306-0.851-0.625-1.17-0.727-0.537-1.17-0.626c-0.443-0.088-0.903-0.043-1.321 0.13s-0.775 0.466-1.026 0.842c-0.251 0.376-0.385 0.818-0.385 1.27-0.007 0.076-0.007 0.153 0 0.229l-5.501 5.501h-0.244l-2.636-2.682c0-0.606-0.241-1.188-0.669-1.616s-1.010-0.669-1.616-0.669c-0.606 0-1.188 0.241-1.616 0.669s-0.669 1.010-0.669 1.616l-4.571 4.571c-0.606 0-1.188 0.241-1.616 0.669s-0.669 1.010-0.669 1.616c0 0.606 0.241 1.188 0.669 1.616s1.010 0.669 1.616 0.669v0zM28.952 28.191h-25.905v-25.905c0-0.404-0.161-0.792-0.446-1.077s-0.673-0.446-1.077-0.446c-0.404 0-0.792 0.161-1.077 0.446s-0.446 0.673-0.446 1.077v27.429c0 0.404 0.161 0.792 0.446 1.078s0.673 0.446 1.077 0.446h27.429c0.404 0 0.792-0.161 1.078-0.446s0.446-0.673 0.446-1.078-0.161-0.792-0.446-1.078c-0.286-0.286-0.673-0.446-1.078-0.446z"></path>
</symbol>
<symbol id="icon-laptop" viewBox="0 0 41 32">
<path d="M37.818 19.879h-1.94v-13.576c0-1.543-0.613-3.023-1.704-4.114s-2.571-1.704-4.114-1.704h-19.394c-1.543 0-3.023 0.613-4.114 1.704s-1.704 2.571-1.704 4.114v13.576h-1.939c-0.514 0-1.008 0.204-1.371 0.568s-0.568 0.857-0.568 1.371v3.879c0 1.543 0.613 3.023 1.704 4.114s2.571 1.704 4.114 1.704h27.152c1.543 0 3.023-0.613 4.114-1.704s1.704-2.571 1.704-4.114v-3.879c0-0.514-0.204-1.008-0.568-1.371s-0.857-0.568-1.371-0.568zM8.727 6.303c0-0.514 0.204-1.008 0.568-1.371s0.857-0.568 1.371-0.568h19.394c0.514 0 1.008 0.204 1.371 0.568s0.568 0.857 0.568 1.371v13.576h-23.273v-13.576zM35.879 25.697c0 0.514-0.204 1.008-0.568 1.371s-0.857 0.568-1.371 0.568h-27.152c-0.514 0-1.008-0.204-1.371-0.568s-0.568-0.857-0.568-1.371v-1.939h31.030v1.939z"></path>
</symbol>
</defs>
</svg>
