<svg aria-hidden="true" style="position: absolute; width: 0; height: 0; overflow: hidden;" version="1.1" xmlns="http://www.w3.org/2000/svg" xmlns:xlink="http://www.w3.org/1999/xlink">
<defs>
<symbol id="icon-in" viewBox="0 0 32 32">
<path d="M0 3.717c0-1.077 0.36-1.966 1.081-2.667s1.658-1.050 2.811-1.050c1.133 0 2.049 0.345 2.749 1.034 0.721 0.711 1.081 1.638 1.081 2.78 0 1.034-0.35 1.896-1.050 2.586-0.721 0.711-1.668 1.067-2.842 1.067h-0.031c-1.133 0-2.049-0.356-2.749-1.067s-1.050-1.605-1.050-2.683zM0.402 31.999v-21.592h6.857v21.592h-6.857zM11.058 31.999h6.857v-12.057c0-0.754 0.082-1.336 0.247-1.745 0.288-0.733 0.726-1.352 1.313-1.859s1.323-0.76 2.209-0.76c2.306 0 3.46 1.627 3.46 4.881v11.539h6.857v-12.38c0-3.189-0.721-5.608-2.162-7.257s-3.346-2.473-5.714-2.473c-2.656 0-4.726 1.196-6.209 3.588v0.065h-0.031l0.031-0.065v-3.071h-6.857c0.041 0.69 0.062 2.834 0.062 6.432s-0.021 8.652-0.062 15.16z"></path>
</symbol>
<symbol id="icon-write" viewBox="0 0 27 32">
<path d="M19.809 19.048h-12.19c-0.404 0-0.792 0.161-1.077 0.446s-0.446 0.673-0.446 1.078 0.161 0.792 0.446 1.078c0.286 0.286 0.673 0.446 1.077 0.446h12.19c0.404 0 0.792-0.161 1.078-0.446s0.446-0.673 0.446-1.078-0.161-0.792-0.446-1.078c-0.286-0.286-0.673-0.446-1.078-0.446zM19.809 12.952h-9.143c-0.404 0-0.792 0.161-1.078 0.446s-0.446 0.673-0.446 1.078c0 0.404 0.161 0.792 0.446 1.078s0.673 0.446 1.078 0.446h9.143c0.404 0 0.792-0.161 1.078-0.446s0.446-0.673 0.446-1.078c0-0.404-0.161-0.792-0.446-1.078s-0.673-0.446-1.078-0.446zM25.905 3.81h-4.571v-1.524c0-0.404-0.161-0.792-0.446-1.077s-0.673-0.446-1.078-0.446c-0.404 0-0.792 0.161-1.078 0.446s-0.446 0.673-0.446 1.077v1.524h-3.048v-1.524c0-0.404-0.16-0.792-0.446-1.077s-0.673-0.446-1.078-0.446-0.792 0.161-1.078 0.446c-0.286 0.286-0.446 0.673-0.446 1.077v1.524h-3.048v-1.524c0-0.404-0.161-0.792-0.446-1.077s-0.673-0.446-1.077-0.446c-0.404 0-0.792 0.161-1.077 0.446s-0.446 0.673-0.446 1.077v1.524h-4.571c-0.404 0-0.792 0.161-1.077 0.446s-0.446 0.673-0.446 1.077v21.333c0 1.212 0.482 2.375 1.339 3.232s2.020 1.339 3.232 1.339h18.286c1.212 0 2.375-0.482 3.232-1.339s1.339-2.020 1.339-3.232v-21.333c0-0.404-0.161-0.792-0.446-1.077s-0.673-0.446-1.078-0.446zM24.381 26.667c0 0.404-0.16 0.792-0.446 1.078s-0.673 0.446-1.078 0.446h-18.286c-0.404 0-0.792-0.16-1.077-0.446s-0.446-0.673-0.446-1.078v-19.809h3.048v1.524c0 0.404 0.161 0.792 0.446 1.078s0.673 0.446 1.077 0.446c0.404 0 0.792-0.161 1.078-0.446s0.446-0.673 0.446-1.078v-1.524h3.048v1.524c0 0.404 0.16 0.792 0.446 1.078s0.673 0.446 1.078 0.446 0.792-0.161 1.078-0.446c0.286-0.286 0.446-0.673 0.446-1.078v-1.524h3.048v1.524c0 0.404 0.161 0.792 0.446 1.078s0.673 0.446 1.078 0.446c0.404 0 0.792-0.161 1.078-0.446s0.446-0.673 0.446-1.078v-1.524h3.048v19.809z"></path>
</symbol>
</defs>
</svg>
