<svg aria-hidden="true" style="position: absolute; width: 0; height: 0; overflow: hidden;" version="1.1" xmlns="http://www.w3.org/2000/svg" xmlns:xlink="http://www.w3.org/1999/xlink">
<defs>
<symbol id="icon-vector" viewBox="0 0 32 32">
<path fill="#fff" style="fill: var(--color1, #fff)" d="M29.344 11.712l-22.4-11.2c-0.884-0.44-1.882-0.597-2.858-0.449s-1.883 0.594-2.597 1.276c-0.714 0.682-1.2 1.568-1.392 2.537s-0.080 1.973 0.319 2.876l3.84 8.592c0.087 0.208 0.132 0.431 0.132 0.656s-0.045 0.448-0.132 0.656l-3.84 8.592c-0.325 0.731-0.463 1.531-0.4 2.329s0.324 1.566 0.759 2.237c0.436 0.671 1.032 1.222 1.735 1.604s1.49 0.582 2.29 0.582c0.749-0.007 1.487-0.182 2.16-0.512l22.4-11.2c0.795-0.4 1.462-1.012 1.929-1.769s0.714-1.629 0.714-2.519c0-0.889-0.247-1.761-0.714-2.518s-1.135-1.37-1.929-1.769h-0.016zM27.92 17.424l-22.4 11.2c-0.294 0.141-0.624 0.189-0.947 0.137s-0.621-0.201-0.856-0.427c-0.235-0.226-0.395-0.519-0.459-0.839s-0.028-0.652 0.102-0.951l3.824-8.592c0.050-0.115 0.092-0.232 0.128-0.352h11.024c0.424 0 0.831-0.168 1.131-0.469s0.469-0.707 0.469-1.131-0.169-0.831-0.469-1.131c-0.3-0.3-0.707-0.469-1.131-0.469h-11.024c-0.036-0.12-0.079-0.237-0.128-0.352l-3.824-8.592c-0.13-0.299-0.165-0.631-0.102-0.951s0.224-0.613 0.459-0.839c0.235-0.226 0.534-0.375 0.856-0.427s0.652-0.004 0.947 0.137l22.4 11.2c0.262 0.134 0.482 0.338 0.636 0.589s0.235 0.54 0.235 0.834c0 0.295-0.081 0.583-0.235 0.835s-0.374 0.455-0.636 0.589z"></path>
</symbol>
</defs>
</svg>
