<svg aria-hidden="true" style="position: absolute; width: 0; height: 0; overflow: hidden;" version="1.1" xmlns="http://www.w3.org/2000/svg" xmlns:xlink="http://www.w3.org/1999/xlink">
<defs>
<symbol id="icon-on" viewBox="0 0 32 32">
<path d="M5.95 7.622c0-1.883 2.019-3.076 3.668-2.169l15.237 8.38c1.71 0.941 1.71 3.398 0 4.338l-15.237 8.38c-1.65 0.907-3.668-0.286-3.668-2.169v-16.76z"></path>
</symbol>
<symbol id="icon-vector" viewBox="0 0 32 32">
<path d="M26.551 12.845c-0.224-7.014-5.907-12.674-12.945-12.845-0.181 0-0.331 0.139-0.331 0.32l-0.011 4.712c0 0.234-0.181 0.416-0.416 0.426-7.016 0.213-12.678 5.905-12.849 12.941 0 0.181 0.139 0.33 0.32 0.33l4.702 0.011c0.235 0 0.416 0.181 0.427 0.416 0.224 7.014 5.918 12.674 12.945 12.845 0.181 0 0.331-0.139 0.331-0.32l0.011-4.712c0-0.235 0.181-0.416 0.416-0.426 7.016-0.224 12.678-5.916 12.849-12.941 0-0.181-0.139-0.33-0.32-0.33l-4.702-0.011c-0.235 0-0.416-0.181-0.427-0.416zM18.266 26.51c-3.988-0.235-7.187-3.475-7.336-7.483-0.011-0.171-0.149-0.309-0.32-0.309l-4.692-0.011c-0.245 0-0.437-0.203-0.427-0.448 0.235-3.987 3.476-7.185 7.486-7.334 0.171-0.011 0.309-0.149 0.309-0.32l0.011-4.701c0-0.245 0.203-0.437 0.448-0.426 3.988 0.234 7.187 3.475 7.336 7.483 0.011 0.171 0.149 0.309 0.32 0.309l4.692 0.011c0.245 0 0.437 0.203 0.427 0.448-0.235 4.093-3.636 7.344-7.784 7.344l-0.011 5.010c-0.011 0.245-0.213 0.437-0.459 0.426z"></path>
</symbol>
<symbol id="icon-abstract-design" viewBox="0 0 32 32">
<path d="M26.551 12.845c-0.224-7.014-5.907-12.674-12.945-12.845-0.181 0-0.331 0.139-0.331 0.32l-0.011 4.712c0 0.234-0.181 0.416-0.416 0.426-7.016 0.213-12.678 5.905-12.849 12.941 0 0.181 0.139 0.33 0.32 0.33l4.702 0.011c0.235 0 0.416 0.181 0.427 0.416 0.224 7.014 5.918 12.674 12.945 12.845 0.181 0 0.331-0.139 0.331-0.32l0.011-4.712c0-0.235 0.181-0.416 0.416-0.426 7.016-0.224 12.678-5.916 12.849-12.941 0-0.181-0.139-0.33-0.32-0.33l-4.702-0.011c-0.235 0-0.416-0.181-0.427-0.416zM18.266 26.51c-3.988-0.235-7.187-3.475-7.336-7.483-0.011-0.171-0.149-0.309-0.32-0.309l-4.692-0.011c-0.245 0-0.437-0.203-0.427-0.448 0.235-3.987 3.476-7.185 7.486-7.334 0.171-0.011 0.309-0.149 0.309-0.32l0.011-4.701c0-0.245 0.203-0.437 0.448-0.426 3.988 0.234 7.187 3.475 7.336 7.483 0.011 0.171 0.149 0.309 0.32 0.309l4.692 0.011c0.245 0 0.437 0.203 0.427 0.448-0.235 4.093-3.636 7.344-7.784 7.344l-0.011 5.010c-0.011 0.245-0.213 0.437-0.459 0.426z"></path>
<path d="M13.136 13.164c0-0.645 0.691-1.054 1.257-0.743l5.219 2.871c0.586 0.322 0.586 1.164 0 1.486l-5.219 2.871c-0.565 0.311-1.257-0.098-1.257-0.743v-5.741z"></path>
</symbol>
</defs>
</svg>
