<svg aria-hidden="true" style="position: absolute; width: 0; height: 0; overflow: hidden;" version="1.1" xmlns="http://www.w3.org/2000/svg" xmlns:xlink="http://www.w3.org/1999/xlink">
<defs>
<symbol id="icon-clock" viewBox="0 0 32 32">
<path fill="#ef6d58" style="fill: var(--color1, #ef6d58)" d="M16 32c8.837 0 16-7.163 16-16s-7.163-16-16-16c-8.837 0-16 7.163-16 16s7.163 16 16 16zM15 6c0.552 0 1 0.448 1 1v10.42l6.496 3.712c0.465 0.281 0.621 0.881 0.352 1.352s-0.866 0.642-1.344 0.384l-7-4c-0.312-0.178-0.504-0.509-0.504-0.868v-11c0-0.552 0.448-1 1-1z"></path>
</symbol>
<symbol id="icon-present" viewBox="0 0 32 32">
<path fill="#fff" style="fill: var(--color2, #fff)" d="M6 5c0-2.761 2.239-5 5-5s5 2.239 5 5c0-2.761 2.239-5 5-5s5 2.239 5 5v0.012c0 0.14 0 0.54-0.076 0.988h4.076c1.105 0 2 0.895 2 2v2c0 1.105-0.895 2-2 2h-28c-1.105 0-2-0.895-2-2v-2c0-1.105 0.895-2 2-2h4.076c-0.053-0.327-0.078-0.657-0.076-0.988v-0.012zM8.136 6h5.864v-1c0-1.072-0.572-2.062-1.5-2.598s-2.072-0.536-3 0c-0.928 0.536-1.5 1.526-1.5 2.598 0 0.17 0.004 0.548 0.090 0.86 0.012 0.048 0.027 0.094 0.046 0.14zM23.864 6h-5.864v-1c0-1.657 1.343-3 3-3s3 1.343 3 3c0 0.17-0.004 0.548-0.090 0.86-0.012 0.048-0.028 0.094-0.046 0.14zM30 14v15c0 1.657-1.343 3-3 3h-9v-18h12zM2 29c0 1.657 1.343 3 3 3h9v-18h-12v15z"></path>
</symbol>
</defs>
</svg>
