<svg aria-hidden="true" style="position: absolute; width: 0; height: 0; overflow: hidden;" version="1.1" xmlns="http://www.w3.org/2000/svg" xmlns:xlink="http://www.w3.org/1999/xlink">
<defs>
<symbol id="icon-black-logo" viewBox="0 0 106 32">
<path fill="#e60000" style="fill: var(--color1, #e60000)" d="M26.551 12.845c-0.224-7.014-5.907-12.674-12.945-12.845-0.181 0-0.331 0.139-0.331 0.32l-0.011 4.712c0 0.234-0.181 0.416-0.416 0.426-7.016 0.213-12.678 5.905-12.849 12.941 0 0.181 0.139 0.33 0.32 0.33l4.702 0.011c0.235 0 0.416 0.181 0.427 0.416 0.224 7.014 5.918 12.674 12.945 12.845 0.181 0 0.331-0.139 0.331-0.32l0.011-4.712c0-0.235 0.181-0.416 0.416-0.426 7.016-0.224 12.678-5.916 12.849-12.941 0-0.181-0.139-0.33-0.32-0.33l-4.702-0.011c-0.235 0-0.416-0.181-0.427-0.416zM18.266 26.51c-3.988-0.235-7.187-3.475-7.336-7.483-0.011-0.171-0.149-0.309-0.32-0.309l-4.692-0.011c-0.245 0-0.437-0.203-0.426-0.448 0.235-3.987 3.476-7.185 7.486-7.334 0.171-0.011 0.309-0.149 0.309-0.32l0.011-4.701c0-0.245 0.203-0.437 0.448-0.426 3.988 0.234 7.187 3.475 7.336 7.483 0.011 0.171 0.149 0.309 0.32 0.309l4.692 0.011c0.245 0 0.437 0.203 0.427 0.448-0.235 4.093-3.636 7.344-7.784 7.344l-0.011 5.010c-0.011 0.245-0.213 0.437-0.459 0.426z"></path>
<path fill="#fff" style="fill: var(--color2, #fff)" d="M13.136 13.164c0-0.645 0.692-1.054 1.257-0.743l5.219 2.871c0.586 0.322 0.586 1.164 0 1.486l-5.219 2.871c-0.565 0.311-1.257-0.098-1.257-0.743v-5.741z"></path>
<path fill="#fff" style="fill: var(--color2, #fff)" d="M33.6 14.35c0-0.405 0.076-0.784 0.229-1.139s0.359-0.664 0.62-0.928c0.265-0.268 0.572-0.48 0.923-0.634s0.725-0.232 1.125-0.232h4.431v1.957h-4.431c-0.135 0-0.26 0.025-0.377 0.075s-0.22 0.12-0.31 0.211c-0.085 0.086-0.153 0.189-0.202 0.307s-0.074 0.245-0.074 0.382c0 0.136 0.025 0.266 0.074 0.389 0.049 0.118 0.117 0.223 0.202 0.314 0.090 0.086 0.193 0.155 0.31 0.205s0.242 0.075 0.377 0.075h1.933c0.4 0 0.774 0.077 1.125 0.232 0.355 0.15 0.662 0.359 0.923 0.627 0.265 0.264 0.471 0.575 0.62 0.934 0.153 0.355 0.229 0.734 0.229 1.139s-0.076 0.784-0.229 1.139c-0.148 0.355-0.355 0.666-0.62 0.934-0.26 0.264-0.568 0.473-0.923 0.627-0.35 0.155-0.725 0.232-1.125 0.232h-4.29v-1.957h4.29c0.135 0 0.26-0.025 0.377-0.075s0.218-0.118 0.303-0.205c0.090-0.091 0.159-0.196 0.209-0.314s0.074-0.245 0.074-0.382c0-0.136-0.025-0.264-0.074-0.382s-0.119-0.221-0.209-0.307c-0.085-0.091-0.186-0.161-0.303-0.211s-0.242-0.075-0.377-0.075h-1.933c-0.4 0-0.774-0.077-1.125-0.232s-0.658-0.364-0.923-0.627c-0.26-0.268-0.467-0.58-0.62-0.934-0.153-0.359-0.229-0.741-0.229-1.146z"></path>
<path fill="#fff" style="fill: var(--color2, #fff)" d="M45.897 21.197c-0.444 0-0.862-0.084-1.253-0.252-0.391-0.173-0.734-0.407-1.030-0.702-0.292-0.3-0.523-0.648-0.694-1.044-0.166-0.396-0.249-0.818-0.249-1.269v-2.169h-0.896v-1.855h0.896v-2.919h1.832v2.919h2.788v1.855h-2.788v2.169c0 0.196 0.036 0.38 0.108 0.552 0.072 0.168 0.171 0.316 0.296 0.443s0.274 0.23 0.444 0.307c0.171 0.073 0.352 0.109 0.545 0.109h1.394v1.855h-1.394z"></path>
<path fill="#fff" style="fill: var(--color2, #fff)" d="M50.166 21.197h-1.838v-7.304h0.444l0.606 0.866c0.296-0.273 0.633-0.482 1.010-0.627 0.377-0.15 0.768-0.225 1.172-0.225h1.623v1.855h-1.623c-0.193 0-0.375 0.036-0.545 0.109s-0.319 0.173-0.444 0.3-0.224 0.277-0.296 0.45c-0.072 0.173-0.108 0.357-0.108 0.552v4.024z"></path>
<path fill="#fff" style="fill: var(--color2, #fff)" d="M56.772 19.41c0.071 0.023 0.143 0.039 0.215 0.048 0.072 0.005 0.143 0.007 0.215 0.007 0.18 0 0.353-0.025 0.518-0.075s0.321-0.12 0.465-0.211c0.148-0.095 0.278-0.209 0.391-0.341 0.117-0.136 0.211-0.286 0.283-0.45l1.347 1.371c-0.171 0.246-0.368 0.466-0.593 0.662-0.22 0.196-0.46 0.361-0.721 0.498-0.256 0.136-0.527 0.239-0.815 0.307-0.283 0.073-0.574 0.109-0.875 0.109-0.507 0-0.986-0.095-1.435-0.286-0.444-0.191-0.835-0.457-1.172-0.798-0.332-0.341-0.595-0.746-0.788-1.214-0.193-0.473-0.29-0.991-0.29-1.555 0-0.577 0.097-1.105 0.29-1.582s0.456-0.884 0.788-1.221c0.337-0.336 0.727-0.598 1.172-0.784 0.449-0.186 0.927-0.28 1.435-0.28 0.301 0 0.595 0.036 0.882 0.109s0.559 0.177 0.815 0.314c0.26 0.136 0.503 0.305 0.727 0.505 0.225 0.196 0.422 0.416 0.593 0.662l-3.448 4.208zM57.715 15.57c-0.085-0.032-0.17-0.052-0.255-0.061-0.081-0.009-0.166-0.014-0.256-0.014-0.252 0-0.49 0.048-0.714 0.143-0.22 0.091-0.413 0.223-0.579 0.396-0.162 0.173-0.29 0.382-0.384 0.627-0.094 0.241-0.141 0.514-0.141 0.818 0 0.068 0.002 0.145 0.006 0.232 0.009 0.086 0.020 0.175 0.034 0.266 0.018 0.086 0.038 0.171 0.061 0.252s0.052 0.155 0.087 0.218l2.141-2.878z"></path>
<path fill="#fff" style="fill: var(--color2, #fff)" d="M68.079 21.197h-0.445l-0.714-1.003c-0.175 0.159-0.362 0.309-0.559 0.45-0.193 0.136-0.397 0.257-0.613 0.361-0.215 0.1-0.438 0.18-0.667 0.239-0.225 0.059-0.453 0.089-0.687 0.089-0.507 0-0.986-0.086-1.434-0.259-0.445-0.173-0.835-0.423-1.172-0.75-0.332-0.332-0.595-0.737-0.788-1.214s-0.29-1.021-0.29-1.63c0-0.568 0.097-1.089 0.29-1.562 0.193-0.477 0.456-0.887 0.788-1.228 0.337-0.341 0.727-0.605 1.172-0.791 0.449-0.191 0.927-0.286 1.434-0.286 0.234 0 0.465 0.030 0.694 0.089s0.451 0.141 0.667 0.246c0.215 0.105 0.42 0.227 0.613 0.368 0.197 0.141 0.381 0.293 0.552 0.457l0.714-0.866h0.445v7.291zM66.227 17.48c0-0.255-0.049-0.5-0.148-0.737-0.094-0.241-0.225-0.452-0.391-0.634-0.166-0.186-0.361-0.334-0.586-0.443-0.22-0.114-0.456-0.171-0.707-0.171s-0.49 0.043-0.714 0.13c-0.22 0.086-0.413 0.214-0.579 0.382-0.162 0.168-0.29 0.377-0.384 0.627-0.094 0.245-0.141 0.527-0.141 0.846s0.047 0.602 0.141 0.853c0.094 0.246 0.222 0.452 0.384 0.621 0.166 0.168 0.359 0.296 0.579 0.382 0.224 0.086 0.462 0.13 0.714 0.13s0.487-0.055 0.707-0.164c0.225-0.114 0.42-0.261 0.586-0.443 0.166-0.186 0.297-0.398 0.391-0.634 0.099-0.241 0.148-0.489 0.148-0.743z"></path>
<path fill="#fff" style="fill: var(--color2, #fff)" d="M78.658 21.197h-1.832v-4.638c0-0.127-0.025-0.248-0.074-0.361-0.045-0.114-0.11-0.214-0.196-0.3s-0.184-0.152-0.296-0.198c-0.113-0.050-0.231-0.075-0.357-0.075s-0.245 0.025-0.357 0.075c-0.108 0.046-0.204 0.111-0.289 0.198-0.081 0.086-0.146 0.186-0.196 0.3-0.045 0.114-0.067 0.234-0.067 0.361v4.638h-1.838v-4.638c0-0.127-0.025-0.248-0.074-0.361-0.045-0.114-0.11-0.214-0.195-0.3s-0.184-0.152-0.297-0.198c-0.112-0.050-0.231-0.075-0.357-0.075s-0.245 0.025-0.357 0.075c-0.108 0.046-0.204 0.111-0.29 0.198-0.081 0.086-0.146 0.186-0.195 0.3-0.045 0.114-0.067 0.234-0.067 0.361v4.638h-1.838v-7.304h0.444l0.498 0.559c0.256-0.218 0.537-0.386 0.842-0.505 0.309-0.123 0.63-0.184 0.963-0.184 0.337 0 0.665 0.064 0.983 0.191 0.323 0.127 0.606 0.348 0.849 0.662 0.112-0.155 0.24-0.286 0.383-0.396s0.294-0.198 0.451-0.266c0.162-0.068 0.328-0.116 0.499-0.143 0.171-0.032 0.339-0.048 0.505-0.048 0.381 0 0.738 0.073 1.070 0.218 0.337 0.146 0.629 0.346 0.876 0.6 0.251 0.25 0.449 0.546 0.593 0.887s0.215 0.705 0.215 1.091v4.638z"></path>
<path fill="#fff" style="fill: var(--color2, #fff)" d="M87.581 11.417l-3.172 9.78h-1.933l-3.158-9.78h2.196l1.926 6.527 1.933-6.527h2.209z"></path>
<path fill="#fff" style="fill: var(--color2, #fff)" d="M90.483 11.908c0 0.173-0.034 0.334-0.101 0.484-0.063 0.15-0.15 0.282-0.263 0.396-0.112 0.109-0.245 0.198-0.397 0.266-0.148 0.064-0.307 0.095-0.478 0.095s-0.332-0.032-0.485-0.095c-0.148-0.068-0.278-0.157-0.391-0.266-0.108-0.114-0.195-0.246-0.262-0.396-0.063-0.15-0.094-0.311-0.094-0.484 0-0.168 0.031-0.327 0.094-0.477 0.067-0.155 0.155-0.286 0.262-0.396 0.113-0.114 0.243-0.202 0.391-0.266 0.153-0.068 0.314-0.102 0.485-0.102s0.33 0.034 0.478 0.102c0.153 0.064 0.285 0.152 0.397 0.266 0.113 0.109 0.2 0.241 0.263 0.396 0.067 0.15 0.101 0.309 0.101 0.477zM90.167 21.197h-1.852v-7.304h1.852v7.304z"></path>
<path fill="#fff" style="fill: var(--color2, #fff)" d="M98.793 17.48c0 0.573-0.097 1.096-0.29 1.569s-0.455 0.88-0.788 1.221c-0.332 0.336-0.723 0.598-1.172 0.784-0.444 0.186-0.923 0.28-1.435 0.28-0.507 0-0.985-0.095-1.434-0.286-0.444-0.191-0.835-0.457-1.172-0.798-0.332-0.341-0.595-0.746-0.788-1.214-0.193-0.473-0.29-0.991-0.29-1.555v-6.493h1.845v3.41c0.099-0.127 0.218-0.241 0.357-0.341 0.143-0.1 0.296-0.182 0.458-0.246 0.166-0.064 0.337-0.111 0.512-0.143 0.175-0.036 0.346-0.055 0.511-0.055 0.512 0 0.99 0.098 1.435 0.293 0.449 0.191 0.839 0.459 1.172 0.805s0.595 0.755 0.788 1.228c0.193 0.468 0.29 0.982 0.29 1.541zM96.941 17.48c0-0.282-0.050-0.543-0.148-0.784-0.094-0.245-0.225-0.457-0.39-0.634s-0.362-0.316-0.586-0.416c-0.22-0.1-0.455-0.15-0.707-0.15s-0.489 0.057-0.714 0.171c-0.22 0.109-0.413 0.257-0.579 0.443-0.166 0.182-0.296 0.393-0.39 0.634-0.094 0.236-0.141 0.482-0.141 0.737 0 0.282 0.047 0.543 0.141 0.784s0.225 0.45 0.39 0.627c0.166 0.177 0.359 0.318 0.579 0.423 0.225 0.1 0.462 0.15 0.714 0.15s0.487-0.050 0.707-0.15c0.225-0.105 0.42-0.245 0.586-0.423s0.296-0.386 0.39-0.627c0.099-0.241 0.148-0.502 0.148-0.784z"></path>
<path fill="#fff" style="fill: var(--color2, #fff)" d="M102.685 19.41c0.072 0.023 0.144 0.039 0.215 0.048 0.072 0.005 0.144 0.007 0.215 0.007 0.18 0 0.353-0.025 0.519-0.075s0.321-0.12 0.465-0.211c0.148-0.095 0.278-0.209 0.39-0.341 0.117-0.136 0.211-0.286 0.283-0.45l1.347 1.371c-0.171 0.246-0.368 0.466-0.593 0.662-0.22 0.196-0.46 0.361-0.721 0.498-0.256 0.136-0.527 0.239-0.815 0.307-0.283 0.073-0.575 0.109-0.876 0.109-0.507 0-0.985-0.095-1.434-0.286-0.444-0.191-0.835-0.457-1.172-0.798-0.332-0.341-0.595-0.746-0.788-1.214-0.193-0.473-0.29-0.991-0.29-1.555 0-0.577 0.097-1.105 0.29-1.582s0.455-0.884 0.788-1.221c0.337-0.336 0.727-0.598 1.172-0.784 0.449-0.186 0.927-0.28 1.434-0.28 0.301 0 0.595 0.036 0.882 0.109s0.559 0.177 0.815 0.314c0.26 0.136 0.503 0.305 0.727 0.505 0.225 0.196 0.422 0.416 0.593 0.662l-3.448 4.208zM103.628 15.57c-0.085-0.032-0.171-0.052-0.256-0.061-0.081-0.009-0.166-0.014-0.256-0.014-0.251 0-0.489 0.048-0.714 0.143-0.22 0.091-0.413 0.223-0.579 0.396-0.162 0.173-0.29 0.382-0.384 0.627-0.094 0.241-0.141 0.514-0.141 0.818 0 0.068 0.002 0.145 0.007 0.232 0.009 0.086 0.020 0.175 0.034 0.266 0.018 0.086 0.038 0.171 0.061 0.252s0.051 0.155 0.087 0.218l2.141-2.878z"></path>
</symbol>
<symbol id="icon-search-black" viewBox="0 0 32 32">
<path fill="none" stroke="#fff" style="stroke: var(--color2, #fff)" stroke-linejoin="round" stroke-linecap="round" stroke-miterlimit="4" stroke-width="2.2857" d="M30.571 30.571l-8.414-8.414M22.158 22.158c2.197-2.197 3.557-5.233 3.557-8.586 0-6.706-5.437-12.143-12.143-12.143s-12.143 5.437-12.143 12.143c0 6.706 5.437 12.143 12.143 12.143 3.353 0 6.389-1.359 8.586-3.557z"></path>
</symbol>
<symbol id="icon-notify-black" viewBox="0 0 30 32">
<path fill="none" stroke="#fff" style="stroke: var(--color2, #fff)" stroke-linejoin="round" stroke-linecap="round" stroke-miterlimit="4" stroke-width="2.2857" d="M19.483 24.228c3.067-0.364 6.025-1.085 8.831-2.121-2.326-2.582-3.742-6.001-3.742-9.75v-1.135c0-0.027 0-0.053 0-0.080 0-5.365-4.349-9.714-9.714-9.714s-9.714 4.349-9.714 9.714l-0 1.214c0 3.749-1.416 7.168-3.742 9.75 2.806 1.036 5.764 1.757 8.831 2.121M19.483 24.228c-1.517 0.18-3.060 0.272-4.626 0.272s-3.108-0.093-4.625-0.272M19.483 24.228c0.151 0.469 0.232 0.968 0.232 1.487 0 2.683-2.175 4.857-4.857 4.857s-4.857-2.175-4.857-4.857c0-0.518 0.081-1.018 0.232-1.487"></path>
</symbol>
</defs>
</svg>
